# xmcd
#
# Track frame offsets:
#	150
#	17148
#	28903
#	49274
#	61414
#	80840
#	100473
#	115646
#	133484
#	146777
#	161335
#	181491
#	194019
#	207859
#	226302
#	242265
#	263346
#	285336
#	307392
#
# Disc length: 4383 seconds
#
# Revision: 1
# Processed by: cddbd v1.5.1PL2 Copyright (c) Steve Scherf et al.
# Submitted via: audiograbber 1.83.01
#
DISCID=19111d13
DTITLE=Van Morrison - The best of ...
DYEAR=1900
DGENRE=
TTITLE0=Bright side of the road '79
TTITLE1=Gloria '64
TTITLE2=Moondance '70
TTITLE3=Baby please don't go '64
TTITLE4=Have I told you lately '89
TTITLE5=Sweet thing '68
TTITLE6=Warm love '73
TTITLE7=Wonderful remark '83
TTITLE8=Jackie Wilson said (I'm in heaven when you smile) '72
TTITLE9=Full force gale '72
TTITLE10=And it stoned me '70
TTITLE11=Here comes the night '65
TTITLE12=Domino '71
TTITLE13=Did ye get healed '87
TTITLE14=Wild night '71
TTITLE15=Cleaning windows '82
TTITLE16=Whenever God shines his light '89
TTITLE17=Queen of the slipstream '87
TTITLE18=Dweller on the threshold '82
EXTD=
EXTT0=
EXTT1=
EXTT2=
EXTT3=
EXTT4=
EXTT5=
EXTT6=
EXTT7=
EXTT8=
EXTT9=
EXTT10=
EXTT11=
EXTT12=
EXTT13=
EXTT14=
EXTT15=
EXTT16=
EXTT17=
EXTT18=
PLAYORDER=
